# File created by Blade
# Date/Time:  Wed Jan 21 17:34:04 2015
# Frame Rate: 120.000 fps
#------------------------------------------------------
:FULLY-SPECIFIED
:DEGREES
915
root 19.703777 5.488448 -20.230567 -172.327862 -30.780382 -142.486852
Spine -19.302130 -7.424734 42.288631
Head -15.772255 -13.557341 3.179433
LeftShoulder -9.964485 -15.329223 7.224284
LeftArm -23.344807 0.739551 -83.056033
LeftForeArm 10.655408 0.000000 -2.818868
LeftHand 9.078929 -0.000000 -4.028787
LeftHandThumb1 -26.253704 0.000000 33.147579
RightShoulder -29.309312 -14.369050 10.389360
RightArm -42.965509 74.104350 24.315270
RightForeArm 6.122248 -0.000000 119.948297
RightHand -3.013993 -0.000000 -9.247449
RightHandThumb1 -24.326973 -0.000000 -32.862282
LeftUpLeg -99.516097 -23.127241 -52.712221
LeftLeg 136.723001 -0.000000 -0.000000
LeftFoot 29.504252 20.684151 4.553998
LeftToeBase 24.480680 -0.000000 -0.000000
RightUpLeg 15.678346 41.299694 -14.730339
RightLeg 132.853063 -0.000000 -0.000000
RightFoot 44.782690 -20.530115 -17.815653
RightToeBase 20.016715 -0.000000 -0.000000
916
root 19.704631 5.489256 -20.229807 -172.329296 -30.777180 -142.488761
Spine -19.307814 -7.426827 42.276051
Head -15.739324 -13.617784 3.152589
LeftShoulder -9.981942 -15.337184 7.244540
LeftArm -23.343208 0.725196 -83.045907
LeftForeArm 10.705739 0.000000 -2.813716
LeftHand 9.036805 -0.000000 -4.059253
LeftHandThumb1 -26.253704 0.000000 33.147579
RightShoulder -29.311765 -14.352210 10.384826
RightArm -42.921016 74.084476 24.325616
RightForeArm 6.114512 -0.000000 119.918563
RightHand -2.995787 -0.000000 -9.164405
RightHandThumb1 -24.326973 -0.000000 -32.862282
LeftUpLeg -99.528339 -23.116169 -52.703126
LeftLeg 136.729807 -0.000000 -0.000000
LeftFoot 29.511597 20.639444 4.568517
LeftToeBase 24.443973 -0.000000 -0.000000
RightUpLeg 15.682201 41.305528 -14.725817
RightLeg 132.843506 -0.000000 -0.000000
RightFoot 44.760472 -20.461266 -17.859155
RightToeBase 20.107491 -0.000000 -0.000000
917
root 19.704672 5.488923 -20.229809 -172.334531 -30.775372 -142.488950
Spine -19.328894 -7.423840 42.268912
Head -15.663367 -13.604246 3.070893
LeftShoulder -9.969985 -15.323971 7.254008
LeftArm -23.343322 0.723962 -83.053743
LeftForeArm 10.709682 -0.000000 -2.811397
LeftHand 9.037544 -0.000000 -4.077019
LeftHandThumb1 -26.253704 0.000000 33.147579
RightShoulder -29.316311 -14.375080 10.368754
RightArm -42.867130 74.085154 24.369832
RightForeArm 6.124525 -0.000000 119.897291
RightHand -2.990524 0.000000 -9.155609
RightHandThumb1 -24.326973 -0.000000 -32.862282
LeftUpLeg -99.515508 -23.112317 -52.720985
LeftLeg 136.723339 -0.000000 -0.000000
LeftFoot 29.524134 20.679857 4.578807
LeftToeBase 24.401576 -0.000000 -0.000000
RightUpLeg 15.687793 41.305330 -14.726382
RightLeg 132.825629 -0.000000 -0.000000
RightFoot 44.764140 -20.469838 -17.821850
RightToeBase 20.079795 -0.000000 -0.000000
918
root 19.704712 5.488881 -20.229531 -172.329201 -30.771938 -142.496580
Spine -19.349664 -7.417374 42.243103
Head -15.604354 -13.667512 3.051565
LeftShoulder -9.980933 -15.282582 7.284708
LeftArm -23.305570 0.718492 -83.077675
LeftForeArm 10.732428 -0.000000 -2.813823
LeftHand 9.011874 -0.000000 -4.058138
LeftHandThumb1 -26.253704 0.000000 33.147579
RightShoulder -29.320731 -14.391831 10.380930
RightArm -42.830939 74.091975 24.363447
RightForeArm 6.300219 -0.000000 119.869722
RightHand -3.038739 -0.000000 -9.419265
RightHandThumb1 -24.326973 -0.000000 -32.862282
LeftUpLeg -99.516975 -23.113503 -52.727275
LeftLeg 136.726349 -0.000000 -0.000000
LeftFoot 29.516268 20.671044 4.599011
LeftToeBase 24.424676 -0.000000 -0.000000
RightUpLeg 15.688227 41.309538 -14.732105
RightLeg 132.811365 -0.000000 -0.000000
RightFoot 44.775954 -20.443291 -17.821845
RightToeBase 20.100347 -0.000000 -0.000000
919
root 19.704927 5.489182 -20.228904 -172.329349 -30.766914 -142.497526
Spine -19.363130 -7.418361 42.236567
Head -15.554550 -13.709671 3.020491
LeftShoulder -9.991058 -15.289460 7.298861
LeftArm -23.317316 0.740062 -83.094534
LeftForeArm 10.718639 -0.000000 -2.816947
LeftHand 9.028114 -0.000000 -4.022844
LeftHandThumb1 -26.253704 0.000000 33.147579
RightShoulder -29.317793 -14.381641 10.360544
RightArm -42.758943 74.060966 24.409439
RightForeArm 6.226605 -0.000000 119.864967
RightHand -3.091067 0.000000 -9.152306
RightHandThumb1 -24.326973 -0.000000 -32.862282
LeftUpLeg -99.528143 -23.105494 -52.715077
LeftLeg 136.727957 -0.000000 -0.000000
LeftFoot 29.534891 20.628776 4.611715
LeftToeBase 24.345347 -0.000000 -0.000000
RightUpLeg 15.685952 41.329220 -14.732514
RightLeg 132.801543 -0.000000 -0.000000
RightFoot 44.782914 -20.408129 -17.785687
RightToeBase 20.123201 -0.000000 -0.000000
920
root 19.705098 5.488870 -20.229312 -172.331999 -30.764751 -142.495336
Spine -19.386296 -7.417602 42.232753
Head -15.494716 -13.774189 3.012649
LeftShoulder -9.986296 -15.279159 7.310613
LeftArm -23.324127 0.760748 -83.118225
LeftForeArm 10.676390 0.000000 -2.821370
LeftHand 9.033195 -0.000000 -4.014694
LeftHandThumb1 -26.253704 0.000000 33.147579
RightShoulder -29.315503 -14.391560 10.344627
RightArm -42.666422 74.035400 24.484730
RightForeArm 6.227181 -0.000000 119.853028
RightHand -3.087271 -0.000000 -9.147393
RightHandThumb1 -24.326973 -0.000000 -32.862282
LeftUpLeg -99.531011 -23.105282 -52.710045
LeftLeg 136.730058 -0.000000 -0.000000
LeftFoot 29.555851 20.580307 4.662522
LeftToeBase 24.419910 -0.000000 -0.000000
RightUpLeg 15.693721 41.343917 -14.720956
RightLeg 132.786373 -0.000000 -0.000000
RightFoot 44.808066 -20.383754 -17.752185
RightToeBase 20.141172 -0.000000 -0.000000
921
root 19.704801 5.489491 -20.229092 -172.332339 -30.758930 -142.495998
Spine -19.395749 -7.393137 42.235315
Head -15.463497 -13.822694 2.934851
LeftShoulder -9.988038 -15.281364 7.292547
LeftArm -23.301534 0.747342 -83.097800
LeftForeArm 10.705397 -0.000000 -2.872993
LeftHand 9.058840 -0.000000 -3.984517
LeftHandThumb1 -26.253704 0.000000 33.147579
RightShoulder -29.357823 -14.379931 10.331913
RightArm -42.455564 73.996283 24.667555
RightForeArm 6.201875 -0.000000 119.856500
RightHand -3.103670 -0.000000 -9.109429
RightHandThumb1 -24.326973 -0.000000 -32.862282
LeftUpLeg -99.526444 -23.099423 -52.717868
LeftLeg 136.729700 -0.000000 -0.000000
LeftFoot 29.583811 20.581022 4.690971
LeftToeBase 24.332137 -0.000000 -0.000000
RightUpLeg 15.690558 41.372524 -14.719024
RightLeg 132.776709 -0.000000 -0.000000
RightFoot 44.822622 -20.320570 -17.720359
RightToeBase 20.146934 -0.000000 -0.000000
